<svg width="59" height="58" viewBox="0 0 59 58" fill="none" xmlns="http://www.w3.org/2000/svg">
<g clip-path="url(#clip0_616_5318)">
<path d="M29.5776 21.6595C28.2466 21.66 26.9457 22.0551 25.8392 22.7949C24.7328 23.5347 23.8706 24.586 23.3615 25.8158C22.8525 27.0457 22.7196 28.3988 22.9796 29.7042C23.2396 31.0095 23.8808 32.2085 24.8221 33.1495C25.7634 34.0904 26.9626 34.7312 28.2681 34.9907C29.5735 35.2501 30.9266 35.1167 32.1562 34.6072C33.3859 34.0978 34.4368 33.2352 35.1762 32.1284C35.9156 31.0217 36.3103 29.7206 36.3103 28.3896C36.309 26.6046 35.5991 24.8932 34.3367 23.6313C33.0743 22.3693 31.3626 21.6601 29.5776 21.6595ZM45.3129 16.4863C44.9702 15.618 44.4529 14.8294 43.7928 14.1693C43.1328 13.5093 42.3442 12.9919 41.4759 12.6493C38.8262 11.6033 32.5175 11.838 29.5776 11.838C26.6377 11.838 20.3353 11.5945 17.6781 12.6493C16.8098 12.9919 16.0212 13.5093 15.3611 14.1693C14.7011 14.8294 14.1837 15.618 13.8411 16.4863C12.7964 19.136 13.0298 25.451 13.0298 28.3884C13.0298 31.3257 12.7964 37.6332 13.8461 40.2917C14.1888 41.16 14.7061 41.9486 15.3662 42.6086C16.0262 43.2687 16.8148 43.786 17.6831 44.1287C20.3328 45.1747 26.6415 44.94 29.5827 44.94C32.5238 44.94 38.8237 45.1835 41.4809 44.1287C42.3492 43.786 43.1378 43.2687 43.7979 42.6086C44.4579 41.9486 44.9753 41.16 45.3179 40.2917C46.3715 37.642 46.1292 31.327 46.1292 28.3896C46.1292 25.4523 46.3715 19.1461 45.3179 16.4876L45.3129 16.4863ZM29.5776 38.736C27.5313 38.736 25.5309 38.1292 23.8295 36.9923C22.128 35.8554 20.8019 34.2395 20.0188 32.349C19.2358 30.4584 19.0309 28.3781 19.4301 26.3712C19.8293 24.3642 20.8147 22.5206 22.2616 21.0737C23.7086 19.6267 25.5521 18.6413 27.5591 18.2421C29.5661 17.8429 31.6464 18.0478 33.537 18.8309C35.4275 19.6139 37.0434 20.9401 38.1803 22.6415C39.3171 24.343 39.9239 26.3433 39.9239 28.3896C39.9256 29.7488 39.6591 31.0949 39.1398 32.351C38.6204 33.607 37.8584 34.7482 36.8973 35.7093C35.9362 36.6704 34.795 37.4324 33.5389 37.9518C32.2829 38.4711 30.9368 38.7376 29.5776 38.736ZM40.3504 20.0242C39.8727 20.0245 39.4057 19.8831 39.0084 19.6178C38.6111 19.3526 38.3013 18.9756 38.1184 18.5343C37.9354 18.093 37.8874 17.6074 37.9804 17.1389C38.0735 16.6703 38.3034 16.2399 38.6411 15.902C38.9787 15.5642 39.4091 15.334 39.8775 15.2408C40.346 15.1475 40.8317 15.1952 41.273 15.378C41.7144 15.5607 42.0916 15.8703 42.3571 16.2674C42.6225 16.6646 42.7641 17.1316 42.7641 17.6092C42.7655 17.9265 42.7042 18.2408 42.5837 18.5343C42.4633 18.8278 42.2861 19.0946 42.0623 19.3194C41.8385 19.5442 41.5726 19.7227 41.2797 19.8445C40.9868 19.9663 40.6727 20.0291 40.3555 20.0293L40.3504 20.0242ZM51.7844 0.126465H7.37084C5.76459 0.126465 4.22412 0.764547 3.08833 1.90034C1.95254 3.03613 1.31445 4.5766 1.31445 6.18286L1.31445 50.5964C1.31445 52.2026 1.95254 53.7431 3.08833 54.8789C4.22412 56.0147 5.76459 56.6528 7.37084 56.6528H51.7844C53.3906 56.6528 54.9311 56.0147 56.0669 54.8789C57.2027 53.7431 57.8408 52.2026 57.8408 50.5964V6.18286C57.8408 4.5766 57.2027 3.03613 56.0669 1.90034C54.9311 0.764547 53.3906 0.126465 51.7844 0.126465ZM49.6243 36.7172C49.4615 39.951 48.7234 42.8164 46.3626 45.1709C44.0019 47.5253 41.139 48.2786 37.9089 48.4325C34.5767 48.6205 24.5861 48.6205 21.2539 48.4325C18.02 48.2697 15.1647 47.5303 12.8001 45.1709C10.4356 42.8114 9.69246 39.9447 9.53853 36.7172C9.35053 33.3836 9.35053 23.3918 9.53853 20.0621C9.70129 16.8282 10.4306 13.9628 12.8001 11.6084C15.1697 9.25395 18.0326 8.50952 21.2539 8.35559C24.5861 8.16759 34.5767 8.16759 37.9089 8.35559C41.1428 8.51835 44.007 9.25774 46.3626 11.6172C48.7183 13.9767 49.4703 16.8434 49.6243 20.0772C49.8123 23.3981 49.8123 33.3811 49.6243 36.7172Z" fill="#F0F6FA"/>
</g>
<defs>
<clipPath id="clip0_616_5318">
<rect width="58" height="57" fill="white" transform="translate(0.789062 0.0244141)"/>
</clipPath>
</defs>
</svg>
