<svg width="59" height="58" viewBox="0 0 59 58" fill="none" xmlns="http://www.w3.org/2000/svg">
<g clip-path="url(#clip0_1090_9316)">
<path d="M54.0128 0.230469H5.60076C3.38245 0.230469 1.58008 2.05805 1.58008 4.30157V52.6254C1.58008 54.8689 3.38245 56.6965 5.60076 56.6965H54.0128C56.2312 56.6965 58.0461 54.8689 58.0461 52.6254V4.30157C58.0461 2.05805 56.2312 0.230469 54.0128 0.230469ZM18.6459 48.6299H10.2769V21.6825H18.6585V48.6299H18.6459ZM14.4614 18.0022C11.7767 18.0022 9.60885 15.8217 9.60885 13.1496C9.60885 10.4775 11.7767 8.29705 14.4614 8.29705C17.1335 8.29705 19.3139 10.4775 19.3139 13.1496C19.3139 15.8343 17.1461 18.0022 14.4614 18.0022ZM50.0174 48.6299H41.6483V35.5218C41.6483 32.396 41.5853 28.3753 37.2999 28.3753C32.9389 28.3753 32.2709 31.7784 32.2709 35.2949V48.6299H23.9018V21.6825H31.9306V25.3629H32.044C33.1658 23.2454 35.9009 21.0145 39.972 21.0145C48.4419 21.0145 50.0174 26.5981 50.0174 33.858V48.6299Z" fill="white"/>
</g>
<defs>
<clipPath id="clip0_1090_9316">
<rect width="58" height="57.0492" fill="white" transform="translate(0.789062)"/>
</clipPath>
</defs>
</svg>
