<svg width="446" height="60" viewBox="0 0 446 60" fill="none" xmlns="http://www.w3.org/2000/svg">
<rect width="60.6667" height="60" rx="10" fill="#182038"/>
<g clip-path="url(#clip0_618_5311)">
<path d="M25.1667 45.4998C28.0187 45.4998 30.3333 43.1852 30.3333 40.3332V35.1665H25.1667C22.3147 35.1665 20 37.4812 20 40.3332C20 43.1852 22.3147 45.4998 25.1667 45.4998Z" fill="#0ACF83"/>
<path d="M20 30.0002C20 27.1482 22.3147 24.8335 25.1667 24.8335H30.3333V35.1668H25.1667C22.3147 35.1668 20 32.8522 20 30.0002Z" fill="#A259FF"/>
<path d="M20 19.6667C20 16.8147 22.3147 14.5 25.1667 14.5H30.3333V24.8333H25.1667C22.3147 24.8333 20 22.5187 20 19.6667Z" fill="#F24E1E"/>
<path d="M30.334 14.5H35.5007C38.3526 14.5 40.6673 16.8147 40.6673 19.6667C40.6673 22.5187 38.3526 24.8333 35.5007 24.8333H30.334V14.5Z" fill="#FF7262"/>
<path d="M40.6673 30.0002C40.6673 32.8522 38.3526 35.1668 35.5007 35.1668C32.6487 35.1668 30.334 32.8522 30.334 30.0002C30.334 27.1482 32.6487 24.8335 35.5007 24.8335C38.3526 24.8335 40.6673 27.1482 40.6673 30.0002Z" fill="#1ABCFE"/>
</g>
<g clip-path="url(#clip1_618_5311)">
<path d="M86.5635 4.83609e-06H126.307C127.738 -0.00134432 129.156 0.279605 130.479 0.826775C131.802 1.37394 133.004 2.17659 134.016 3.18878C135.028 4.20097 135.831 5.40283 136.378 6.72558C136.925 8.04832 137.206 9.46599 137.204 10.8974V49.1026C137.206 50.534 136.925 51.9517 136.378 53.2744C135.831 54.5972 135.028 55.799 134.016 56.8112C133.004 57.8234 131.802 58.6261 130.479 59.1732C129.156 59.7204 127.738 60.0014 126.307 60H86.5635C85.132 60.0014 83.7143 59.7204 82.3916 59.1732C81.0688 58.6261 79.867 57.8234 78.8548 56.8112C77.8426 55.799 77.04 54.5972 76.4928 53.2744C75.9456 51.9517 75.6647 50.534 75.666 49.1026V10.8974C75.6647 9.46599 75.9456 8.04832 76.4928 6.72558C77.04 5.40283 77.8426 4.20097 78.8548 3.18878C79.867 2.17659 81.0688 1.37394 82.3916 0.826775C83.7143 0.279605 85.132 -0.00134432 86.5635 4.83609e-06Z" fill="#330000"/>
<path d="M105.486 36.0004H95.9474L93.9987 42.026C93.9769 42.1359 93.9149 42.2336 93.8247 42.3C93.7346 42.3664 93.6229 42.3968 93.5115 42.385H88.691C88.409 42.385 88.332 42.2312 88.409 41.9235L96.6654 18.1542C96.7423 17.8978 96.8192 17.6158 96.9218 17.3081C97.025 16.7586 97.0765 16.2006 97.0756 15.6414C97.0679 15.5772 97.0848 15.5125 97.1228 15.4602C97.1609 15.4078 97.2173 15.3719 97.2807 15.3594H103.922C104.127 15.3594 104.229 15.4363 104.255 15.5645L113.614 41.9748C113.691 42.2568 113.614 42.385 113.358 42.385H107.999C107.908 42.3937 107.817 42.3703 107.742 42.3187C107.667 42.2671 107.613 42.1907 107.588 42.103L105.486 36.0004ZM97.4346 30.7953H103.947C103.794 30.2568 103.588 29.6158 103.358 28.9491C103.127 28.2825 102.896 27.5132 102.665 26.744C102.435 25.9748 102.178 25.1799 101.922 24.385C101.665 23.5901 101.435 22.8466 101.229 22.103C101.024 21.3594 100.845 20.7183 100.665 20.103H100.614C100.384 21.2205 100.093 22.3247 99.7423 23.4107C99.3577 24.6414 98.9731 25.9235 98.5628 27.2055C98.2038 28.5132 97.8192 29.7183 97.4346 30.7953Z" fill="#FF9A00"/>
<path d="M119.205 19.7436C118.784 19.7528 118.365 19.6782 117.973 19.5242C117.582 19.3701 117.224 19.1396 116.923 18.8462C116.335 18.2038 116.022 17.3572 116.051 16.4872C116.036 16.0633 116.11 15.641 116.269 15.2478C116.428 14.8546 116.668 14.4993 116.974 14.2052C117.59 13.6226 118.408 13.3011 119.256 13.3077C120.256 13.3077 121.025 13.6154 121.589 14.2052C122.157 14.8269 122.461 15.6454 122.435 16.4872C122.451 16.9204 122.38 17.3524 122.226 17.7576C122.071 18.1627 121.838 18.5329 121.538 18.8462C121.236 19.1539 120.871 19.3933 120.469 19.5481C120.066 19.7029 119.635 19.7696 119.205 19.7436ZM116.333 42V22.2564C116.333 22 116.435 21.8975 116.666 21.8975H121.743C121.974 21.8975 122.076 22.0257 122.076 22.2564V42C122.076 42.2821 121.974 42.4103 121.743 42.4103H116.717C116.664 42.4147 116.609 42.4069 116.559 42.3875C116.508 42.3681 116.463 42.3375 116.426 42.298C116.389 42.2586 116.361 42.2113 116.345 42.1597C116.329 42.1081 116.325 42.0535 116.333 42Z" fill="#FF9A00"/>
</g>
<g clip-path="url(#clip2_618_5311)">
<path d="M163.103 4.83609e-06H202.846C204.278 -0.00134432 205.695 0.279605 207.018 0.826775C208.341 1.37394 209.543 2.17659 210.555 3.18878C211.567 4.20097 212.37 5.40283 212.917 6.72558C213.464 8.04832 213.745 9.46599 213.744 10.8974V49.1026C213.745 50.534 213.464 51.9517 212.917 53.2744C212.37 54.5972 211.567 55.799 210.555 56.8112C209.543 57.8234 208.341 58.6261 207.018 59.1732C205.695 59.7204 204.278 60.0014 202.846 60H163.103C161.671 60.0014 160.253 59.7204 158.931 59.1732C157.608 58.6261 156.406 57.8234 155.394 56.8112C154.382 55.799 153.579 54.5972 153.032 53.2744C152.485 51.9517 152.204 50.534 152.205 49.1026V10.8974C152.204 9.46599 152.485 8.04832 153.032 6.72558C153.579 5.40283 154.382 4.20097 155.394 3.18878C156.406 2.17659 157.608 1.37394 158.931 0.826775C160.253 0.279605 161.671 -0.00134432 163.103 4.83609e-06Z" fill="#001E36"/>
<path d="M166.051 42.0774V15.6927C166.051 15.5132 166.128 15.4107 166.307 15.4107C166.743 15.4107 167.153 15.4107 167.743 15.385C168.333 15.3594 168.999 15.3594 169.692 15.3338C170.384 15.3081 171.128 15.3081 171.923 15.2825C172.717 15.2568 173.487 15.2568 174.256 15.2568C176.358 15.2568 178.102 15.5132 179.538 16.0517C180.825 16.4888 181.999 17.2071 182.974 18.1543C183.8 18.9832 184.438 19.9801 184.846 21.0773C185.234 22.1459 185.433 23.2738 185.435 24.4107C185.435 26.6158 184.923 28.4363 183.897 29.8722C182.867 31.3062 181.428 32.3963 179.769 33.0004C178.025 33.6415 176.102 33.8722 173.999 33.8722C173.384 33.8722 172.974 33.8722 172.717 33.8466C172.461 33.8209 172.102 33.8209 171.615 33.8209V42.0517C171.621 42.0939 171.618 42.1368 171.607 42.1779C171.595 42.219 171.576 42.2574 171.55 42.2909C171.524 42.3244 171.491 42.3522 171.453 42.3728C171.416 42.3934 171.375 42.4063 171.333 42.4107H166.358C166.153 42.4107 166.051 42.3081 166.051 42.0774ZM171.641 20.3594V28.9748C171.999 29.0004 172.333 29.0261 172.641 29.0261H173.999C175 29.0273 175.995 28.8715 176.948 28.5645C177.766 28.3241 178.496 27.8521 179.051 27.2056C179.589 26.5645 179.846 25.6927 179.846 24.5645C179.87 23.7633 179.665 22.9717 179.256 22.2825C178.828 21.6167 178.2 21.1047 177.461 20.8209C176.498 20.4439 175.468 20.2694 174.435 20.3081C173.769 20.3081 173.179 20.3081 172.692 20.3338C172.341 20.3108 171.989 20.3194 171.641 20.3594Z" fill="#31A8FF"/>
<path d="M201.435 27.4106C200.661 27.0028 199.832 26.7092 198.973 26.5388C198.031 26.3253 197.068 26.2136 196.102 26.2055C195.583 26.1876 195.064 26.2481 194.563 26.385C194.244 26.4514 193.96 26.6342 193.768 26.8978C193.639 27.1058 193.568 27.345 193.563 27.5901C193.575 27.834 193.665 28.0677 193.82 28.2567C194.063 28.5418 194.359 28.7769 194.691 28.9491C195.281 29.2567 195.896 29.5388 196.512 29.7952C197.897 30.2616 199.223 30.8899 200.461 31.667C201.303 32.1965 201.999 32.9281 202.486 33.7952C202.898 34.6132 203.101 35.5207 203.076 36.4362C203.097 37.6482 202.748 38.8377 202.076 39.8465C201.361 40.87 200.363 41.663 199.204 42.1285C197.948 42.667 196.409 42.9491 194.563 42.9491C193.393 42.9538 192.224 42.8421 191.076 42.6157C190.172 42.4595 189.292 42.1835 188.461 41.7952C188.371 41.7504 188.297 41.6803 188.247 41.5938C188.197 41.5072 188.173 41.4079 188.179 41.308V36.8465C188.176 36.8027 188.184 36.759 188.202 36.7189C188.22 36.6788 188.247 36.6434 188.281 36.6157C188.317 36.5947 188.359 36.5858 188.401 36.5904C188.442 36.595 188.481 36.6129 188.512 36.6414C189.5 37.2236 190.572 37.6476 191.691 37.8978C192.679 38.1548 193.696 38.2841 194.717 38.2824C195.691 38.2824 196.384 38.1542 196.845 37.9234C197.051 37.8283 197.226 37.6765 197.348 37.4858C197.471 37.295 197.536 37.0732 197.538 36.8465C197.538 36.4875 197.332 36.1542 196.922 35.8208C196.512 35.4875 195.666 35.1029 194.409 34.6157C193.12 34.1616 191.896 33.5409 190.768 32.7696C189.965 32.1969 189.299 31.4524 188.82 30.5901C188.41 29.7802 188.208 28.8818 188.23 27.9747C188.234 26.8806 188.535 25.8081 189.102 24.8721C189.753 23.8428 190.688 23.0236 191.794 22.5132C192.999 21.8978 194.512 21.6157 196.332 21.6157C197.396 21.616 198.459 21.6931 199.512 21.8465C200.269 21.9489 201.01 22.1471 201.717 22.4362C201.83 22.4762 201.922 22.5592 201.973 22.667C202.003 22.7671 202.02 22.8704 202.025 22.9747V27.1542C202.025 27.204 202.014 27.2532 201.991 27.2978C201.969 27.3424 201.937 27.381 201.896 27.4106C201.747 27.4642 201.584 27.4642 201.435 27.4106Z" fill="#31A8FF"/>
</g>
<g clip-path="url(#clip3_618_5311)">
<path d="M274.682 0H242.807C235.04 0 228.744 6.296 228.744 14.0625V45.9375C228.744 53.704 235.04 60 242.807 60H274.682C282.448 60 288.744 53.704 288.744 45.9375V14.0625C288.744 6.296 282.448 0 274.682 0Z" fill="#242938"/>
<path d="M258.744 34.4418C261.159 34.4418 263.116 32.484 263.116 30.0693C263.116 27.6545 261.159 25.6968 258.744 25.6968C256.329 25.6968 254.371 27.6545 254.371 30.0693C254.371 32.484 256.329 34.4418 258.744 34.4418Z" fill="#00D8FF"/>
<path d="M258.745 21.1787C264.615 21.1787 270.069 22.0211 274.181 23.4369C279.135 25.1425 282.182 27.7279 282.182 30.069C282.182 32.5086 278.953 35.2553 273.633 37.018C269.61 38.3507 264.317 39.0463 258.745 39.0463C253.031 39.0463 247.62 38.3933 243.553 37.0032C238.406 35.2443 235.307 32.4622 235.307 30.069C235.307 27.7468 238.215 25.1814 243.1 23.4784C247.227 22.0393 252.816 21.1787 258.744 21.1787H258.745Z" stroke="#00D8FF" stroke-width="2.08852"/>
<path d="M251.005 25.6495C253.938 20.5641 257.392 16.2605 260.672 13.4058C264.625 9.96586 268.387 8.61867 270.414 9.78797C272.528 11.0067 273.294 15.1758 272.164 20.6653C271.309 24.8154 269.267 29.748 266.483 34.5757C263.628 39.5252 260.36 43.886 257.124 46.7145C253.029 50.2938 249.07 51.5892 246.997 50.3937C244.986 49.2344 244.217 45.4327 245.182 40.3502C245.997 36.0558 248.043 30.7849 251.004 25.6495H251.005Z" stroke="#00D8FF" stroke-width="2.08852"/>
<path d="M251.013 34.5885C248.072 29.5086 246.07 24.366 245.234 20.098C244.228 14.9556 244.939 11.024 246.965 9.85114C249.077 8.62864 253.071 10.0466 257.262 13.768C260.431 16.5815 263.685 20.8136 266.477 25.6365C269.34 30.5814 271.485 35.5911 272.32 39.8071C273.376 45.1424 272.521 49.2189 270.45 50.4177C268.44 51.5811 264.763 50.3495 260.842 46.975C257.528 44.124 253.984 39.719 251.013 34.5885Z" stroke="#00D8FF" stroke-width="2.08852"/>
</g>
<rect x="303.744" width="63.3333" height="60" rx="10" fill="white"/>
<g clip-path="url(#clip4_618_5311)">
<path d="M355.41 17.5254L342.647 42.4754H330.658L336 32.1354H335.76C331.353 37.8554 324.778 41.6221 315.41 42.4754V32.2787C315.41 32.2787 321.403 31.9237 324.927 28.2204H315.41V17.5254H326.105V26.3221L326.345 26.3204L330.715 17.5254H338.805V26.2654H339.045L343.578 17.5254H355.41Z" fill="black"/>
</g>
<rect x="382.076" width="63.3333" height="60" rx="10" fill="white"/>
<g clip-path="url(#clip5_618_5311)">
<path d="M399.176 10.824C399.277 10.5802 399.448 10.3717 399.667 10.225C399.886 10.0784 400.144 10 400.408 10H427.075C427.428 10 427.768 10.1405 428.018 10.3905C428.268 10.6406 428.408 10.9797 428.408 11.3333V24.6667C428.408 25.0203 428.268 25.3594 428.018 25.6095C427.768 25.8595 427.428 26 427.075 26H416.96L428.019 37.056C428.206 37.2425 428.333 37.4803 428.385 37.7392C428.436 37.9982 428.41 38.2666 428.309 38.5106C428.208 38.7545 428.036 38.9629 427.817 39.1094C427.597 39.2559 427.339 39.3338 427.075 39.3333H415.075V48.6667C415.075 48.9307 414.997 49.189 414.851 49.4087C414.704 49.6284 414.496 49.7996 414.252 49.9008C414.008 50.0019 413.74 50.0283 413.481 49.9766C413.222 49.925 412.984 49.7976 412.797 49.6107L399.464 36.2773C399.34 36.1533 399.242 36.0061 399.175 35.8441C399.109 35.6821 399.074 35.5085 399.075 35.3333V24.6667C399.075 24.313 399.215 23.9739 399.465 23.7239C399.715 23.4738 400.054 23.3333 400.408 23.3333H410.523L399.464 12.2773C399.278 12.0907 399.151 11.853 399.1 11.5944C399.048 11.3357 399.075 11.0676 399.176 10.824Z" fill="black"/>
</g>
<defs>
<clipPath id="clip0_618_5311">
<rect width="20.6667" height="31" fill="white" transform="translate(20 14.5)"/>
</clipPath>
<clipPath id="clip1_618_5311">
<rect width="61.5385" height="60" fill="white" transform="translate(75.666)"/>
</clipPath>
<clipPath id="clip2_618_5311">
<rect width="61.5385" height="60" fill="white" transform="translate(152.205)"/>
</clipPath>
<clipPath id="clip3_618_5311">
<rect width="60" height="60" fill="white" transform="translate(228.744)"/>
</clipPath>
<clipPath id="clip4_618_5311">
<rect width="40" height="40" fill="white" transform="translate(315.41 10)"/>
</clipPath>
<clipPath id="clip5_618_5311">
<rect width="40" height="40" fill="white" transform="translate(393.742 10)"/>
</clipPath>
</defs>
</svg>
