<svg width="59" height="58" viewBox="0 0 59 58" fill="none" xmlns="http://www.w3.org/2000/svg">
<g clip-path="url(#clip0_616_5320)">
<path d="M9.65331 0.0703125C5.19934 0.0703125 1.57812 3.69883 1.57812 8.16178V48.6191C1.57812 53.0821 5.19934 56.7106 9.65331 56.7106H50.0293C54.4832 56.7106 58.1044 53.0821 58.1044 48.6191V8.16178C58.1044 3.69883 54.4832 0.0703125 50.0293 0.0703125H9.65331ZM47.1398 10.6904L34.0429 25.6849L49.4488 46.0905H37.3865L27.9487 33.7131L17.1355 46.0905H11.1422L25.1476 30.0467L10.3725 10.6904H22.7376L31.2797 22.0058L41.1465 10.6904H47.1398ZM42.3704 42.5L20.9333 14.0913H17.3626L39.0394 42.5H42.3578H42.3704Z" fill="#F0F6FA"/>
</g>
<defs>
<clipPath id="clip0_616_5320">
<rect width="58" height="57" fill="white" transform="translate(0.789062 0.0244141)"/>
</clipPath>
</defs>
</svg>
